<svg xmlns="http://www.w3.org/2000/svg" viewBox="0 0 24 24" id="hackerrank"><path d="M11.999 24c-1.499 0-9.696-4.71-10.441-6C.813 16.715.812 7.295 1.557 6.001 2.297 4.711 10.495 0 11.999 0c1.491 0 9.688 4.708 10.441 5.998.752 1.287.753 10.71.001 12.004C21.691 19.291 13.494 24 11.999 24zm0-23c-1.14 0-9.015 4.522-9.575 5.499-.563.98-.564 10.027-.001 11 .564.977 8.44 5.5 9.576 5.5 1.133 0 9.01-4.524 9.577-5.501.569-.979.57-10.022.001-10.996C21.006 5.525 13.129 1 11.999 1z"></path><path d="M14.84 19.915c-.551-.005-2.133-1.753-2.258-2.054-.078-.188-.038-.471.106-.614.126-.126.27-.179.685-.208.005-1.102.024-2.536.039-3.342h-2.807c-.002.614.003 1.657.065 2.891.014.241-.05.438-.189.584-.138.145-.332.219-.577.219h-.007l-1.437-.004c-.241 0-.434-.073-.572-.216-.141-.145-.208-.342-.2-.586l.012-.4c.046-1.568.114-3.923-.012-9.227-.428-.033-.561-.09-.678-.208-.143-.142-.184-.419-.107-.605.133-.324 1.757-2.062 2.284-2.062.521 0 2.14 1.737 2.273 2.06.077.188.036.466-.107.609-.116.115-.247.172-.673.206-.059.901-.071 2.219-.081 3.302l-.009.811h2.796a99.615 99.615 0 0 0-.059-3.405c-.007-.23.057-.417.189-.555a.686.686 0 0 1 .503-.206c.529-.004 1.058-.005 1.584-.003a.7.7 0 0 1 .516.203c.134.137.199.325.195.558-.13 6.719-.082 8.041-.051 8.916.006.158.011.303.015.461.474.036.578.092.692.203.146.143.188.426.108.615-.124.299-1.689 2.045-2.234 2.057h-.004zm-.87-1.908c.288.294.64.624.867.812.225-.188.573-.518.857-.812a.5.5 0 0 1-.411-.492c0-.371-.009-.612-.019-.9-.032-.874-.079-2.19.045-8.713-.325 0-.649 0-.974.002.058 1.909.051 3.145.048 3.563v.104a.5.5 0 0 1-.5.5H10.08a.497.497 0 0 1-.5-.511c.008-.348.013-.805.018-1.309.012-1.242.027-2.788.109-3.667l-.002-.101a.5.5 0 0 1 .367-.482 12.897 12.897 0 0 0-.886-.824c-.23.188-.592.522-.888.82a.5.5 0 0 1 .383.486v.149c.137 5.54.065 7.973.02 9.583l-.006.173.965.002a58.12 58.12 0 0 1-.054-3.021l.001-.171a.5.5 0 0 1 .5-.5h3.787a.5.5 0 0 1 .5.5c.016.146.022.209.021.284-.017.829-.044 2.809-.044 4.036a.497.497 0 0 1-.401.489zM9.369 5.043z"></path></svg>